<svg width="108" height="28" viewBox="0 0 108 28" fill="none" xmlns="http://www.w3.org/2000/svg">
<path d="M27.0001 19H13.0001V23H27.0001V19Z" fill="url(#paint0_linear_220_117)"/>
<path d="M7.66673 17.0001H2.33339C1.59701 17.0001 1.00006 17.5971 1.00006 18.3335V23.6668C1.00006 24.4032 1.59701 25.0001 2.33339 25.0001H7.66673C8.40311 25.0001 9.00006 24.4032 9.00006 23.6668V18.3335C9.00006 17.5971 8.40311 17.0001 7.66673 17.0001Z" fill="#171717"/>
<path d="M1 7H15V11H1V7Z" fill="url(#paint1_linear_220_117)"/>
<path d="M26.3333 13H19.6668C19.5531 13 19.4414 12.971 19.3421 12.9157C19.2428 12.8603 19.1594 12.7805 19.0996 12.6839C19.0398 12.5872 19.0058 12.4769 19.0007 12.3634C18.9956 12.2498 19.0196 12.1369 19.0704 12.0352L22.4036 5.33887C22.4652 5.23558 22.5525 5.15004 22.657 5.09063C22.7615 5.03123 22.8797 5 22.9999 5C23.1202 5 23.2383 5.03123 23.3429 5.09063C23.4474 5.15004 23.5347 5.23558 23.5963 5.33887L26.9295 12.0354C26.9803 12.137 27.0043 12.2499 26.9991 12.3634C26.994 12.4769 26.96 12.5872 26.9002 12.6839C26.8405 12.7805 26.7571 12.8603 26.6578 12.9156C26.5586 12.9709 26.4469 13 26.3333 13Z" fill="#171717"/>
<path d="M37.386 21.5V6.1H40.576V18.684H49.002V21.5H37.386ZM55.9525 21.72C54.8965 21.72 53.9211 21.588 53.0265 21.324C52.1318 21.0453 51.3545 20.6493 50.6945 20.136L52.1905 18.134C52.8505 18.574 53.4811 18.904 54.0825 19.124C54.6985 19.344 55.3071 19.454 55.9085 19.454C56.5831 19.454 57.1185 19.344 57.5145 19.124C57.9251 18.8893 58.1305 18.5887 58.1305 18.222C58.1305 17.9287 58.0131 17.694 57.7785 17.518C57.5585 17.342 57.1991 17.2173 56.7005 17.144L54.5005 16.814C53.3565 16.638 52.4911 16.2713 51.9045 15.714C51.3178 15.142 51.0245 14.394 51.0245 13.47C51.0245 12.722 51.2151 12.084 51.5965 11.556C51.9925 11.0133 52.5425 10.5953 53.2465 10.302C53.9651 9.994 54.8158 9.84 55.7985 9.84C56.6345 9.84 57.4485 9.95733 58.2405 10.192C59.0471 10.4267 59.8025 10.786 60.5065 11.27L59.0545 13.228C58.4238 12.832 57.8225 12.546 57.2505 12.37C56.6785 12.194 56.0991 12.106 55.5125 12.106C54.9698 12.106 54.5298 12.2087 54.1925 12.414C53.8698 12.6193 53.7085 12.8907 53.7085 13.228C53.7085 13.536 53.8258 13.778 54.0605 13.954C54.2951 14.13 54.6985 14.2547 55.2705 14.328L57.4485 14.658C58.5925 14.8193 59.4651 15.186 60.0665 15.758C60.6678 16.3153 60.9685 17.0413 60.9685 17.936C60.9685 18.6693 60.7485 19.322 60.3085 19.894C59.8685 20.4513 59.2745 20.8987 58.5265 21.236C57.7785 21.5587 56.9205 21.72 55.9525 21.72ZM63.1291 21.5V10.038H66.1431V21.5H63.1291ZM64.6251 8.674C64.1558 8.674 63.7524 8.50533 63.4151 8.168C63.0778 7.83067 62.9091 7.42733 62.9091 6.958C62.9091 6.474 63.0778 6.07067 63.4151 5.748C63.7524 5.41067 64.1558 5.242 64.6251 5.242C65.1091 5.242 65.5124 5.41067 65.8351 5.748C66.1724 6.07067 66.3411 6.474 66.3411 6.958C66.3411 7.42733 66.1724 7.83067 65.8351 8.168C65.5124 8.50533 65.1091 8.674 64.6251 8.674ZM74.6382 21.72C73.5089 21.72 72.4895 21.4633 71.5802 20.95C70.6709 20.422 69.9522 19.7107 69.4242 18.816C68.8962 17.9067 68.6322 16.8947 68.6322 15.78C68.6322 14.6507 68.8962 13.6387 69.4242 12.744C69.9522 11.8493 70.6709 11.138 71.5802 10.61C72.4895 10.082 73.5089 9.818 74.6382 9.818C75.5475 9.818 76.4129 9.994 77.2342 10.346C78.0702 10.698 78.7889 11.204 79.3902 11.864L77.5422 13.822C77.1169 13.3527 76.6695 13.008 76.2002 12.788C75.7455 12.5533 75.2469 12.436 74.7042 12.436C74.1175 12.436 73.5895 12.5827 73.1202 12.876C72.6655 13.1693 72.2989 13.5653 72.0202 14.064C71.7562 14.5627 71.6242 15.1347 71.6242 15.78C71.6242 16.396 71.7562 16.9607 72.0202 17.474C72.2989 17.9727 72.6802 18.3687 73.1642 18.662C73.6482 18.9407 74.1835 19.08 74.7702 19.08C75.2835 19.08 75.7602 18.9773 76.2002 18.772C76.6549 18.552 77.0875 18.2293 77.4982 17.804L79.3022 19.696C78.7155 20.3267 78.0115 20.8253 77.1902 21.192C76.3689 21.544 75.5182 21.72 74.6382 21.72ZM86.7949 21.72C85.6509 21.72 84.6169 21.456 83.6929 20.928C82.7689 20.4 82.0356 19.6887 81.4929 18.794C80.9502 17.8993 80.6789 16.8947 80.6789 15.78C80.6789 14.6653 80.9429 13.6607 81.4709 12.766C82.0136 11.8567 82.7469 11.138 83.6709 10.61C84.6096 10.082 85.6509 9.818 86.7949 9.818C87.9389 9.818 88.9729 10.082 89.8969 10.61C90.8356 11.138 91.5689 11.8567 92.0969 12.766C92.6396 13.6607 92.9109 14.6653 92.9109 15.78C92.9109 16.8947 92.6396 17.8993 92.0969 18.794C91.5689 19.6887 90.8429 20.4 89.9189 20.928C88.9949 21.456 87.9536 21.72 86.7949 21.72ZM86.7949 19.102C87.3962 19.102 87.9316 18.9553 88.4009 18.662C88.8849 18.3687 89.2662 17.9727 89.5449 17.474C89.8382 16.9607 89.9849 16.396 89.9849 15.78C89.9849 15.1493 89.8382 14.5847 89.5449 14.086C89.2662 13.5873 88.8849 13.1913 88.4009 12.898C87.9316 12.59 87.3962 12.436 86.7949 12.436C86.2082 12.436 85.6729 12.59 85.1889 12.898C84.7049 13.1913 84.3236 13.5873 84.0449 14.086C83.7662 14.5847 83.6269 15.1493 83.6269 15.78C83.6269 16.396 83.7662 16.9607 84.0449 17.474C84.3236 17.9727 84.7049 18.3687 85.1889 18.662C85.6729 18.9553 86.2082 19.102 86.7949 19.102ZM95.4235 21.5V10.038H98.4375V10.984C99.3029 10.2067 100.374 9.818 101.65 9.818C102.544 9.818 103.329 10.016 104.004 10.412C104.693 10.7933 105.228 11.3287 105.61 12.018C105.991 12.6927 106.182 13.4847 106.182 14.394V21.5H103.168V14.834C103.168 14.086 102.955 13.4993 102.53 13.074C102.104 12.634 101.525 12.414 100.792 12.414C100.278 12.414 99.8235 12.5167 99.4275 12.722C99.0315 12.9127 98.7015 13.1913 98.4375 13.558V21.5H95.4235Z" fill="#171717"/>
<defs>
<linearGradient id="paint0_linear_220_117" x1="13.0001" y1="21" x2="27.0001" y2="21" gradientUnits="userSpaceOnUse">
<stop stop-color="#FE5124"/>
<stop offset="1" stop-color="#FE5124" stop-opacity="0"/>
</linearGradient>
<linearGradient id="paint1_linear_220_117" x1="15" y1="9" x2="1" y2="9" gradientUnits="userSpaceOnUse">
<stop stop-color="#FE5124"/>
<stop offset="1" stop-color="#FE5124" stop-opacity="0"/>
</linearGradient>
</defs>
</svg>
